<svg width="301" height="89" viewBox="0 0 301 89" fill="none" xmlns="http://www.w3.org/2000/svg">
<g clip-path="url(#clip0)">
<path d="M300.124 53.1451C296.861 44.5342 290.035 34.3283 284.336 28.0985C287.493 29.7608 291.235 31.854 293.629 33.1642C295.52 34.2123 297.222 34.4464 298.582 33.5909C299.87 32.7789 301.212 30.492 298.862 25.3932C292.679 12.0056 278.787 2.96904 263.747 1.04158C262.159 0.838584 261.102 1.39062 260.865 2.43979C260.639 3.43822 261.386 4.53607 262.996 4.97625C270.883 7.15953 280.304 11.8047 286.111 21.79C271.991 13.2972 256.296 7.79856 239.991 5.63289C237.925 5.35636 236.521 6.09378 236.268 7.48992C236.03 8.81978 237.02 10.0409 239.158 10.6178C253.212 14.4116 271.66 22.2177 284.426 44.8584C268.087 31.0493 243.265 19.9309 222.565 16.7492C220.309 16.4002 218.811 17.2121 218.495 18.6311C218.177 20.05 219.07 21.4399 221.386 22.2105C237.39 27.5144 260.077 39.7244 272.019 65.0641C260.207 52.6159 234.986 38.9435 216.532 34.7509C214.074 34.1916 212.6 34.8804 212.127 36.2692C211.669 37.6157 212.427 39.2386 214.78 40.2536C225.017 44.6875 240.12 54.2585 247.763 70.0148C243.28 66.628 234.557 60.2843 224.905 57.5272C216.543 55.1389 212.196 59.1481 216.862 67.5861C220.238 73.6905 227.873 80.9788 234.337 84.9549C236.994 86.5945 239.105 83.9234 236.674 81.6748C231.238 76.6465 227.241 72.2188 226.105 69.6668C225.179 67.5809 226.626 66.7689 229.096 67.9206C237.599 71.9039 246.036 79.2554 251.053 83.6955C253.309 85.6965 256.876 88.9145 260.422 87.7545C263.398 86.783 264.122 83.1197 262.716 78.4434C260.747 71.8967 257.391 66.1392 255.082 62.1776C261.328 66.9346 268.442 73.4181 274.655 79.3673C277.876 82.4485 281.628 85.595 285.459 84.028C288.88 82.6298 289.088 78.0985 288.08 73.9174C286.029 65.4204 279.946 54.9742 276.119 49.284C279.892 51.7614 286.108 56.6935 290.882 60.4127C293.97 62.8187 296.629 63.3966 298.76 62.2335C301.06 60.9927 301.719 57.3543 300.124 53.1451V53.1451Z" fill="#40C706"/>
<path d="M92.3526 6.50391V18.084C94.3005 15.8066 96.628 14.668 99.335 14.668C100.724 14.668 101.978 14.9258 103.095 15.4414C104.212 15.957 105.05 16.6159 105.608 17.418C106.181 18.2201 106.568 19.1081 106.769 20.082C106.983 21.056 107.091 22.5671 107.091 24.6152V38H101.054V25.9473C101.054 23.5553 100.939 22.0371 100.71 21.3926C100.481 20.748 100.073 20.2396 99.4854 19.8672C98.9125 19.4805 98.1892 19.2871 97.3155 19.2871C96.3129 19.2871 95.4177 19.5306 94.6299 20.0176C93.8422 20.5046 93.2621 21.2422 92.8897 22.2305C92.5316 23.2044 92.3526 24.651 92.3526 26.5703V38H86.3155V6.50391H92.3526ZM128.208 30.7383L134.224 31.748C133.45 33.9538 132.226 35.6367 130.55 36.7969C128.889 37.9427 126.805 38.5156 124.298 38.5156C120.331 38.5156 117.394 37.2194 115.49 34.627C113.986 32.5501 113.234 29.929 113.234 26.7637C113.234 22.9824 114.222 20.0247 116.199 17.8906C118.175 15.7422 120.674 14.668 123.697 14.668C127.091 14.668 129.769 15.7923 131.732 18.041C133.694 20.2754 134.632 23.7057 134.546 28.332H119.421C119.464 30.1224 119.951 31.5189 120.882 32.5215C121.813 33.5098 122.973 34.0039 124.363 34.0039C125.308 34.0039 126.103 33.7461 126.747 33.2305C127.392 32.7148 127.879 31.8841 128.208 30.7383ZM128.552 24.6367C128.509 22.8893 128.058 21.5645 127.199 20.6621C126.339 19.7454 125.294 19.2871 124.062 19.2871C122.744 19.2871 121.656 19.7669 120.796 20.7266C119.937 21.6862 119.514 22.9896 119.529 24.6367H128.552ZM141.248 38V6.50391H147.285V38H141.248ZM155.254 38V6.50391H161.291V38H155.254ZM167.863 26.2695C167.863 24.2643 168.357 22.3236 169.346 20.4473C170.334 18.571 171.73 17.1387 173.535 16.1504C175.354 15.1621 177.381 14.668 179.615 14.668C183.067 14.668 185.896 15.7923 188.102 18.041C190.307 20.2754 191.41 23.1042 191.41 26.5273C191.41 29.9792 190.293 32.8438 188.059 35.1211C185.839 37.3841 183.038 38.5156 179.658 38.5156C177.567 38.5156 175.569 38.043 173.664 37.0977C171.773 36.1523 170.334 34.7702 169.346 32.9512C168.357 31.1178 167.863 28.8906 167.863 26.2695ZM174.051 26.5918C174.051 28.8548 174.588 30.5879 175.662 31.791C176.736 32.9941 178.061 33.5957 179.637 33.5957C181.212 33.5957 182.53 32.9941 183.59 31.791C184.664 30.5879 185.201 28.8405 185.201 26.5488C185.201 24.3145 184.664 22.5957 183.59 21.3926C182.53 20.1895 181.212 19.5879 179.637 19.5879C178.061 19.5879 176.736 20.1895 175.662 21.3926C174.588 22.5957 174.051 24.3288 174.051 26.5918ZM0.64093 72.4902L6.69952 71.5664C6.95734 72.7409 7.48012 73.6361 8.26788 74.252C9.05564 74.8535 10.1585 75.1543 11.5765 75.1543C13.1377 75.1543 14.3122 74.8678 15.0999 74.2949C15.6299 73.8939 15.8948 73.3568 15.8948 72.6836C15.8948 72.2253 15.7516 71.8457 15.4651 71.5449C15.1644 71.2585 14.4912 70.9935 13.4456 70.75C8.57583 69.6758 5.48924 68.6947 4.18585 67.8066C2.38116 66.5749 1.47882 64.8633 1.47882 62.6719C1.47882 60.6953 2.25942 59.0339 3.82062 57.6875C5.38182 56.3411 7.80239 55.668 11.0823 55.668C14.2047 55.668 16.525 56.1764 18.0433 57.1934C19.5615 58.2103 20.6071 59.7142 21.18 61.7051L15.4866 62.7578C15.2431 61.8698 14.7776 61.1895 14.0901 60.7168C13.417 60.2441 12.4502 60.0078 11.1898 60.0078C9.59991 60.0078 8.46124 60.2298 7.77374 60.6738C7.31541 60.9889 7.08624 61.3971 7.08624 61.8984C7.08624 62.3281 7.28676 62.6934 7.68781 62.9941C8.23208 63.3952 10.1084 63.9609 13.3167 64.6914C16.5394 65.4219 18.7881 66.3171 20.0628 67.377C21.3232 68.4512 21.9534 69.9479 21.9534 71.8672C21.9534 73.9583 21.0797 75.7559 19.3323 77.2598C17.5849 78.7637 14.9997 79.5156 11.5765 79.5156C8.4684 79.5156 6.00486 78.8854 4.18585 77.625C2.38116 76.3646 1.19952 74.653 0.64093 72.4902ZM43.9302 87.6797V76.207C43.1425 77.224 42.1613 78.0332 40.9869 78.6348C39.8124 79.222 38.5448 79.5156 37.1841 79.5156C34.5917 79.5156 32.4576 78.5417 30.7818 76.5938C28.8052 74.3164 27.8169 71.2298 27.8169 67.334C27.8169 63.6673 28.7408 60.8099 30.5884 58.7617C32.4504 56.6992 34.7564 55.668 37.5064 55.668C39.0246 55.668 40.3352 55.9902 41.438 56.6348C42.5552 57.2793 43.5435 58.2533 44.4029 59.5566V56.1836H49.9673V87.6797H43.9302ZM44.1236 67.3125C44.1236 64.9779 43.6438 63.2448 42.6841 62.1133C41.7388 60.9674 40.55 60.3945 39.1177 60.3945C37.6568 60.3945 36.4322 60.9746 35.4439 62.1348C34.4699 63.2949 33.983 65.1354 33.983 67.6562C33.983 70.1628 34.4556 71.9746 35.4009 73.0918C36.3462 74.1947 37.5136 74.7461 38.9029 74.7461C40.2922 74.7461 41.5097 74.123 42.5552 72.877C43.6008 71.6309 44.1236 69.776 44.1236 67.3125ZM72.6961 79V75.584C71.8654 76.8014 70.7697 77.7611 69.409 78.4629C68.0626 79.1647 66.6375 79.5156 65.1336 79.5156C63.601 79.5156 62.226 79.179 61.0086 78.5059C59.7911 77.8327 58.9103 76.8874 58.366 75.6699C57.8217 74.4525 57.5496 72.7695 57.5496 70.6211V56.1836H63.5867V66.668C63.5867 69.8763 63.6941 71.8457 63.909 72.5762C64.1381 73.2923 64.5463 73.8652 65.1336 74.2949C65.7208 74.7103 66.4656 74.918 67.368 74.918C68.3992 74.918 69.323 74.6387 70.1394 74.0801C70.9559 73.5072 71.5144 72.8053 71.8152 71.9746C72.116 71.1296 72.2664 69.0742 72.2664 65.8086V56.1836H78.3035V79H72.6961ZM86.3369 53.0898V47.5039H92.3741V53.0898H86.3369ZM86.3369 79V56.1836H92.3741V79H86.3369ZM99.7844 80.5039L106.681 81.3418C106.796 82.1439 107.06 82.6953 107.476 82.9961C108.049 83.4258 108.951 83.6406 110.183 83.6406C111.758 83.6406 112.94 83.4043 113.728 82.9316C114.258 82.6165 114.659 82.1081 114.931 81.4062C115.117 80.9049 115.21 79.9811 115.21 78.6348V75.3047C113.406 77.7682 111.128 79 108.378 79C105.313 79 102.885 77.7038 101.095 75.1113C99.6913 73.0632 98.9895 70.5137 98.9895 67.4629C98.9895 63.6387 99.9062 60.7168 101.74 58.6973C103.587 56.6777 105.879 55.668 108.615 55.668C111.436 55.668 113.764 56.9069 115.597 59.3848V56.1836H121.247V76.6582C121.247 79.3509 121.025 81.3633 120.581 82.6953C120.137 84.0273 119.514 85.0729 118.712 85.832C117.91 86.5911 116.836 87.1855 115.49 87.6152C114.157 88.0449 112.467 88.2598 110.419 88.2598C106.552 88.2598 103.809 87.5938 102.191 86.2617C100.572 84.944 99.763 83.2682 99.763 81.2344C99.763 81.0339 99.7701 80.7904 99.7844 80.5039ZM105.177 67.1191C105.177 69.5397 105.643 71.3158 106.574 72.4473C107.519 73.5645 108.679 74.123 110.054 74.123C111.529 74.123 112.775 73.5501 113.792 72.4043C114.809 71.2441 115.318 69.5326 115.318 67.2695C115.318 64.9062 114.831 63.1517 113.857 62.0059C112.883 60.86 111.651 60.2871 110.161 60.2871C108.715 60.2871 107.519 60.8529 106.574 61.9844C105.643 63.1016 105.177 64.8132 105.177 67.1191ZM128.443 80.5039L135.339 81.3418C135.454 82.1439 135.719 82.6953 136.134 82.9961C136.707 83.4258 137.61 83.6406 138.841 83.6406C140.417 83.6406 141.598 83.4043 142.386 82.9316C142.916 82.6165 143.317 82.1081 143.589 81.4062C143.776 80.9049 143.869 79.9811 143.869 78.6348V75.3047C142.064 77.7682 139.787 79 137.037 79C133.972 79 131.544 77.7038 129.753 75.1113C128.35 73.0632 127.648 70.5137 127.648 67.4629C127.648 63.6387 128.565 60.7168 130.398 58.6973C132.246 56.6777 134.537 55.668 137.273 55.668C140.095 55.668 142.422 56.9069 144.255 59.3848V56.1836H149.906V76.6582C149.906 79.3509 149.684 81.3633 149.24 82.6953C148.796 84.0273 148.173 85.0729 147.371 85.832C146.569 86.5911 145.494 87.1855 144.148 87.6152C142.816 88.0449 141.126 88.2598 139.078 88.2598C135.21 88.2598 132.468 87.5938 130.849 86.2617C129.231 84.944 128.421 83.2682 128.421 81.2344C128.421 81.0339 128.429 80.7904 128.443 80.5039ZM133.835 67.1191C133.835 69.5397 134.301 71.3158 135.232 72.4473C136.177 73.5645 137.337 74.123 138.712 74.123C140.188 74.123 141.434 73.5501 142.451 72.4043C143.468 71.2441 143.976 69.5326 143.976 67.2695C143.976 64.9062 143.489 63.1517 142.515 62.0059C141.541 60.86 140.309 60.2871 138.82 60.2871C137.373 60.2871 136.177 60.8529 135.232 61.9844C134.301 63.1016 133.835 64.8132 133.835 67.1191ZM157.66 79V47.5039H163.697V79H157.66ZM184.879 71.7383L190.895 72.748C190.121 74.9538 188.896 76.6367 187.221 77.7969C185.559 78.9427 183.475 79.5156 180.969 79.5156C177.001 79.5156 174.065 78.2194 172.16 75.627C170.656 73.5501 169.904 70.929 169.904 67.7637C169.904 63.9824 170.893 61.0247 172.869 58.8906C174.846 56.7422 177.345 55.668 180.367 55.668C183.762 55.668 186.44 56.7923 188.402 59.041C190.365 61.2754 191.303 64.7057 191.217 69.332H176.092C176.135 71.1224 176.622 72.5189 177.553 73.5215C178.484 74.5098 179.644 75.0039 181.033 75.0039C181.979 75.0039 182.773 74.7461 183.418 74.2305C184.062 73.7148 184.549 72.8841 184.879 71.7383ZM185.223 65.6367C185.18 63.8893 184.729 62.5645 183.869 61.6621C183.01 60.7454 181.964 60.2871 180.732 60.2871C179.415 60.2871 178.326 60.7669 177.467 61.7266C176.607 62.6862 176.185 63.9896 176.199 65.6367H185.223Z" fill="#002391"/>
</g>
<defs>
<clipPath id="clip0">
<rect width="301" height="89" fill="white"/>
</clipPath>
</defs>
</svg>
